<svg xmlns="http://www.w3.org/2000/svg" width="256" height="256" viewBox="0 0 520 280" role="img" aria-label="data viz mark">
  <defs>
    <clipPath id="dvm-eye-clip">
      <path d="M60 140 C 150 20, 370 20, 460 140 C 370 260, 150 260, 60 140 Z"/>
    </clipPath>
  </defs>

  <path d="M40 140 C 140 0, 380 0, 480 140 C 380 280, 140 280, 40 140 Z" fill="#1b3a5b"/>
  <path d="M60 140 C 150 20, 370 20, 460 140 C 370 260, 150 260, 60 140 Z" fill="#ffffff"/>

  <g clip-path="url(#dvm-eye-clip)">
    <g stroke="#1b3a5b" stroke-width="9" stroke-linecap="round" fill="none">
      <line x1="260" y1="172" x2="260" y2="58"/>
      <line x1="260" y1="172" x2="178" y2="90"/>
      <line x1="260" y1="172" x2="210" y2="64"/>
      <line x1="260" y1="172" x2="310" y2="64"/>
      <line x1="260" y1="172" x2="342" y2="90"/>
    </g>
    <g fill="#1b3a5b">
      <rect x="178" y="148" width="28" height="60" rx="3"/>
      <rect x="214" y="128" width="28" height="80" rx="3"/>
      <rect x="250" y="158" width="28" height="50" rx="3"/>
      <rect x="286" y="110" width="28" height="98" rx="3"/>
      <rect x="322" y="86"  width="28" height="122" rx="3"/>
    </g>
    <polyline points="186,190 224,164 262,176 300,140 338,110"
              fill="none" stroke="#2eb886" stroke-width="11"
              stroke-linecap="round" stroke-linejoin="round"/>
    <polygon points="338,110 318,104 330,90 348,96" fill="#2eb886"/>
    <polygon points="346,98 360,90 360,118" fill="#2eb886"/>
  </g>

  <path d="M60 140 C 150 20, 370 20, 460 140 C 370 260, 150 260, 60 140 Z"
        fill="none" stroke="#1b3a5b" stroke-width="10"/>
</svg>
