<svg xmlns="http://www.w3.org/2000/svg" width="720" height="360" viewBox="0 0 720 360" role="img" aria-labelledby="title desc">
  <title id="title">DataViz module map</title>
  <desc id="desc">Abstract documentation graphic showing connected visualization modules.</desc>
  <rect width="720" height="360" rx="24" fill="#eef4fb"/>
  <g fill="none" stroke="#1b6ca8" stroke-width="3" opacity="0.65">
    <path d="M110 250C180 170 250 190 320 120S485 80 610 150"/>
    <path d="M120 100C220 135 250 250 380 240S530 220 620 270"/>
    <path d="M150 280C250 300 295 70 420 105S545 160 640 90"/>
  </g>
  <g>
    <circle cx="110" cy="250" r="28" fill="#1b6ca8"/>
    <circle cx="320" cy="120" r="34" fill="#d1495b"/>
    <circle cx="610" cy="150" r="30" fill="#138a72"/>
    <circle cx="120" cy="100" r="26" fill="#138a72"/>
    <circle cx="380" cy="240" r="36" fill="#1b6ca8"/>
    <circle cx="620" cy="270" r="24" fill="#d1495b"/>
    <circle cx="420" cy="105" r="22" fill="#1b6ca8"/>
    <circle cx="640" cy="90" r="20" fill="#138a72"/>
  </g>
  <g fill="#172033" font-family="Segoe UI, Arial, sans-serif" font-weight="700">
    <text x="62" y="322" font-size="24">static</text>
    <text x="310" y="318" font-size="24">interactive</text>
    <text x="560" y="322" font-size="24">analysis</text>
  </g>
</svg>
