<svg xmlns="http://www.w3.org/2000/svg" width="64" height="64" viewBox="0 0 520 280" role="img" aria-label="data viz favicon">
  <defs>
    <clipPath id="dvf-eye-clip">
      <path d="M60 140 C 150 20, 370 20, 460 140 C 370 260, 150 260, 60 140 Z"/>
    </clipPath>
  </defs>
  <path d="M40 140 C 140 0, 380 0, 480 140 C 380 280, 140 280, 40 140 Z" fill="#1b3a5b"/>
  <path d="M60 140 C 150 20, 370 20, 460 140 C 370 260, 150 260, 60 140 Z" fill="#ffffff"/>
  <g clip-path="url(#dvf-eye-clip)">
    <g fill="#1b3a5b">
      <rect x="178" y="148" width="28" height="60" rx="3"/>
      <rect x="214" y="128" width="28" height="80" rx="3"/>
      <rect x="250" y="158" width="28" height="50" rx="3"/>
      <rect x="286" y="110" width="28" height="98" rx="3"/>
      <rect x="322" y="86"  width="28" height="122" rx="3"/>
    </g>
    <polyline points="186,190 224,164 262,176 300,140 338,110"
              fill="none" stroke="#2eb886" stroke-width="14"
              stroke-linecap="round" stroke-linejoin="round"/>
  </g>
  <path d="M60 140 C 150 20, 370 20, 460 140 C 370 260, 150 260, 60 140 Z"
        fill="none" stroke="#1b3a5b" stroke-width="12"/>
</svg>
